# xmcd
#
# Track frame offsets: 
#        150
#        15167
#        36116
#        49633
#        69613
#        89116
#        105539
#        125683
#        145312
#        161180
#        176989
#
# Disc length: 2603 seconds
#
# Revision: 0
# Processed by: cddbd v1.5.2PL0 Copyright (c) Steve Scherf et al.
# Submitted via: ExactAudioCopyFreeDBPlugin 1.0
#
DISCID=9b0a290b
DTITLE=Katarina Pejak - Roads that cross
DYEAR=2019
DGENRE=Blues
TTITLE0=Nature Of The Blues
TTITLE1=Sex Kills
TTITLE2=Cool Drifter
TTITLE3=Moonlight Rider
TTITLE4=Old Pain
TTITLE5=Chasing Summer
TTITLE6=Turtle Blues
TTITLE7=Down With Me
TTITLE8=She’s Coming After You
TTITLE9=Roads That Cross
TTITLE10=The Harder You Kick
EXTD=
EXTT0=
EXTT1=
EXTT2=
EXTT3=
EXTT4=
EXTT5=
EXTT6=
EXTT7=
EXTT8=
EXTT9=
EXTT10=
PLAYORDER=
